<svg xmlns="http://www.w3.org/2000/svg" style="display:none">
  <!-- PM 工具箱 Icon System — 線稿，繼承 host 的 color / stroke -->
  <symbol id="i-compass" viewBox="0 0 24 24">
    <circle cx="12" cy="12" r="9" />
    <path d="M15.6 8.4 13 13l-4.6 2.6L11 11z" />
  </symbol>
  <symbol id="i-search" viewBox="0 0 24 24">
    <circle cx="10.5" cy="10.5" r="6" />
    <path d="m20 20-4.7-4.7" />
  </symbol>
  <symbol id="i-telescope" viewBox="0 0 24 24">
    <path d="M4.5 13.7 16 6l2.8 4.3L7.3 18z" />
    <path d="m6.2 16.8-2.2 4.2" />
    <path d="M12.8 13.2 16 18" />
  </symbol>
  <symbol id="i-map" viewBox="0 0 24 24">
    <path d="m3 6 6-2 6 2 6-2v14l-6 2-6-2-6 2z" />
    <path d="M9 4v16" />
    <path d="M15 6v16" />
  </symbol>
  <symbol id="i-cone" viewBox="0 0 24 24">
    <path d="M12 4 18.5 19h-13z" />
    <path d="M9.3 12h5.4" />
    <path d="M8 15.4h8" />
    <path d="M4 19h16" />
  </symbol>
  <symbol id="i-signpost" viewBox="0 0 24 24">
    <path d="M12 3v18" />
    <path d="M12 5.5h6l2.5 2.5L18 10.5h-6z" />
    <path d="M12 13H6l-2.5 2.5L6 18h6z" />
  </symbol>
  <symbol id="i-ticket" viewBox="0 0 24 24">
    <path d="M4 7h16v3.2a1.8 1.8 0 0 0 0 3.6V17H4v-3.2a1.8 1.8 0 0 0 0-3.6z" />
    <path d="M14.5 7.5v9" stroke-dasharray="1.4 1.9" />
  </symbol>
  <symbol id="i-footprint" viewBox="0 0 24 24">
    <path d="M8.2 13.2c-1.7 0-2.9 1.7-2.9 3.9 0 1.9.8 2.9 2.4 2.9s2.4-1 2.4-2.5c0-1 .3-1.6 1-2.4.7-.9.9-1.6.9-2.6 0-1.7-1.3-3.5-2.8-3.5-1.2 0-1.9 1-1.9 2.3 0 1.5.4 3.4.9 4.4z" />
    <circle cx="15.4" cy="7.6" r="1.2" />
    <circle cx="17.4" cy="10.4" r="1.1" />
    <circle cx="17.7" cy="13.4" r="1" />
  </symbol>
  <symbol id="i-lamp" viewBox="0 0 24 24">
    <path d="M9 21h6" />
    <path d="M12 21v-9" />
    <path d="M12 12a3.8 3.8 0 0 0 3.8-3.8 3.8 3.8 0 0 0-7.6 0A3.8 3.8 0 0 0 12 12Z" />
  </symbol>
</svg>
