<svg id="fi_4406025" height="512" viewBox="0 0 512 512" width="512" xmlns="http://www.w3.org/2000/svg" data-name="Layer 1"><path d="m453.081 160.682q-.7-1.173-1.41-2.31c-21.816-34.865-64.054-52.653-105.111-44.267-9.405 1.921-23.39 5.842-36.606 13.613-13.349 7.847-22.694 17.719-27.778 29.34-8.427 19.264-4.723 42.2 11.009 68.177 21.4 35.344 16.25 71.706 11.7 103.787-2.754 19.422-5.132 36.195-1.47 50.486 4.2 16.38 16.18 26.957 36.636 32.336a43.549 43.549 0 0 0 11.11 1.446c19.409 0 39.384-13.022 58.39-38.253 43.025-57.115 71.561-167.246 43.53-214.355z"></path><path d="m303.625 110.871a28.479 28.479 0 0 0 5.261-.49c9.256-1.738 17.052-7.8 21.951-17.068 4.7-8.889 6.166-19.743 4.132-30.561-4.279-22.758-22.943-38.418-41.6-34.917-9.255 1.738-17.051 7.8-21.95 17.068-4.7 8.889-6.167 19.743-4.132 30.561 3.873 20.614 19.55 35.407 36.338 35.407z"></path><path d="m367.854 99.79q.885.064 1.762.064c14.9 0 27.73-13.7 29.017-31.436a36.712 36.712 0 0 0 -6.29-23.855c-4.9-6.935-11.878-11.065-19.64-11.627-15.632-1.139-29.442 12.941-30.779 31.372a36.72 36.72 0 0 0 6.289 23.854c4.904 6.938 11.879 11.065 19.641 11.628z"></path><path d="m422.933 104.713q.657.048 1.308.047c10.92 0 20.317-9.921 21.249-22.773a26.458 26.458 0 0 0 -4.548-17.187 19.386 19.386 0 0 0 -14.494-8.548c-11.463-.828-21.589 9.363-22.558 22.725a26.459 26.459 0 0 0 4.548 17.193 19.39 19.39 0 0 0 14.495 8.543z"></path><path d="m442.688 119.261a17.259 17.259 0 0 0 10.485 10.708 16.131 16.131 0 0 0 5.343.9c8.074 0 16.041-5.914 19.239-15.059a23.315 23.315 0 0 0 .079-15.673 17.263 17.263 0 0 0 -10.485-10.709c-9.647-3.37-20.673 2.981-24.583 14.156a23.315 23.315 0 0 0 -.078 15.677z"></path><path d="m494.967 130.989c-7.84-6.55-20.4-4.492-28 4.589a23.326 23.326 0 0 0 -5.6 14.638 17.254 17.254 0 0 0 6.038 13.717 16.8 16.8 0 0 0 10.9 3.83 22.68 22.68 0 0 0 17.1-8.419 23.32 23.32 0 0 0 5.6-14.64 17.25 17.25 0 0 0 -6.038-13.715z"></path><path d="m151.285 205.842c-41.751 3.59-77.211 32.619-88.238 72.234q-.36 1.293-.7 2.617c-13.018 51.17 34.208 135.912 85.131 177.5 21.408 17.481 42.21 26.467 60.542 26.466a49.559 49.559 0 0 0 21.8-4.862c19.328-9.345 28.719-21.062 29.555-36.872.728-13.735-5.144-28.619-11.943-45.853-11.155-28.273-23.8-60.32-13.429-99.782 7.714-29.363 4.759-52.408-8.785-68.493-8.172-9.705-19.935-16.524-34.963-20.268-14.882-3.713-29.406-3.511-38.97-2.687zm-69.399 107.458q-.312-1.818-.569-3.616a5 5 0 1 1 9.9-1.414q.237 1.659.526 3.338a5 5 0 1 1 -9.856 1.692zm37.22 76.633a5 5 0 0 1 -6.876-1.65c-11.592-18.91-20.584-38.508-26-56.673a5 5 0 0 1 9.583-2.859c5.175 17.347 13.8 36.125 24.946 54.306a5 5 0 0 1 -1.653 6.877z"></path><path d="m183.456 191.743a28.526 28.526 0 0 0 2.9-.147c9.368-.956 17.645-6.343 23.305-15.167 5.428-8.463 7.8-19.156 6.683-30.107-2.354-23.035-19.627-40.213-38.525-38.282-9.369.956-17.646 6.342-23.306 15.167-5.428 8.464-7.8 19.156-6.683 30.107 2.229 21.853 17.896 38.43 35.626 38.429z"></path><path d="m118.175 199.708a24.418 24.418 0 0 0 8.624-1.56c7.284-2.739 12.8-8.675 15.536-16.717a36.707 36.707 0 0 0 -.738-24.657c-6.512-17.295-23.744-26.878-38.415-21.362-7.284 2.738-12.8 8.675-15.536 16.716a36.709 36.709 0 0 0 .737 24.658c5.265 13.981 17.534 22.922 29.792 22.922z"></path><path d="m68.984 219.633a18.111 18.111 0 0 0 6.394-1.157 19.38 19.38 0 0 0 11.475-12.305 26.461 26.461 0 0 0 -.517-17.777c-4.72-12.538-17.317-19.448-28.078-15.4a19.383 19.383 0 0 0 -11.476 12.306 26.464 26.464 0 0 0 .517 17.776c3.806 10.109 12.73 16.557 21.685 16.557z"></path><path d="m43.756 254.343a16.6 16.6 0 0 0 9.789-3.079 17.254 17.254 0 0 0 7.018-13.242 23.324 23.324 0 0 0 -4.522-15.007c-6.919-9.607-19.3-12.57-27.589-6.608a17.256 17.256 0 0 0 -7.018 13.242 23.316 23.316 0 0 0 4.523 15.007c4.5 6.249 11.307 9.688 17.799 9.687z"></path><path d="m21.384 291.4a23.652 23.652 0 0 0 13.03 4.043c6.125 0 11.812-2.607 15.118-7.576a17.246 17.246 0 0 0 1.899-14.867 23.33 23.33 0 0 0 -9.524-12.45c-9.863-6.554-22.49-4.969-28.149 3.533a17.254 17.254 0 0 0 -1.9 14.866 23.33 23.33 0 0 0 9.524 12.45z"></path></svg>
