<svg height="511pt" viewBox="-96 1 511 511.999" width="511pt" xmlns="http://www.w3.org/2000/svg" id="fi_1843245"><path d="m231.496094 481.980469h-55.257813v-262.496094h22.324219c5.691406 0 10.890625-3.214844 13.429688-8.304687l45.886718-91.894532h10.730469c8.289063 0 15.011719-6.71875 15.011719-15.007812 0-8.289063-6.722656-15.011719-15.011719-15.011719h-12.710937l-45.523438-58.046875c-2.84375-3.625-7.199219-5.746094-11.808594-5.746094h-22.328125v-10.464844c0-8.289062-6.71875-15.007812-15.007812-15.007812-8.289063 0-15.011719 6.71875-15.011719 15.007812v10.464844h-22.324219c-4.609375 0-8.964843 2.121094-11.808593 5.746094l-45.527344 58.046875h-12.691406c-8.289063 0-15.007813 6.71875-15.007813 15.007813 0 8.289062 6.71875 15.011718 15.007813 15.011718h10.714843l45.882813 91.894532c2.542968 5.089843 7.742187 8.304687 13.429687 8.304687h22.324219v262.496094h-55.253906c-8.289063 0-15.011719 6.71875-15.011719 15.007812 0 8.289063 6.722656 15.011719 15.011719 15.011719h140.53125c8.289062 0 15.007812-6.722656 15.007812-15.011719 0-8.289062-6.71875-15.007812-15.007812-15.007812zm-100.296875-426.488281h60.0625l26.488281 33.773437h-113.039062zm1.976562 133.972656-35.042969-70.179688h126.191407l-35.042969 70.179688h-13.042969v-9.785156c0-8.292969-6.71875-15.011719-15.007812-15.011719-8.289063 0-15.011719 6.71875-15.011719 15.011719v9.785156zm0 0"></path><path d="m99.578125 255.546875c5.863281-5.863281 5.863281-15.367187 0-21.226563-5.859375-5.863281-15.363281-5.863281-21.226563 0l-21.800781 21.800782c-5.863281 5.863281-5.863281 15.367187 0 21.226562 2.929688 2.929688 6.773438 4.398438 10.613281 4.398438 3.84375 0 7.683594-1.46875 10.613282-4.398438zm0 0"></path><path d="m237.882812 234.320312c-5.863281-5.863281-15.367187-5.863281-21.226562 0-5.863281 5.863282-5.863281 15.363282 0 21.226563l21.800781 21.800781c2.929688 2.933594 6.773438 4.398438 10.613281 4.398438 3.839844 0 7.683594-1.464844 10.613282-4.398438 5.859375-5.859375 5.859375-15.363281 0-21.226562zm0 0"></path><path d="m304.023438 159.769531h-30.835938c-8.289062 0-15.007812 6.722657-15.007812 15.011719s6.71875 15.007812 15.007812 15.007812h30.835938c8.289062 0 15.007812-6.71875 15.007812-15.007812s-6.71875-15.011719-15.007812-15.011719zm0 0"></path><path d="m61.351562 174.78125c0-8.289062-6.71875-15.011719-15.007812-15.011719h-30.835938c-8.289062 0-15.007812 6.722657-15.007812 15.011719s6.71875 15.007812 15.007812 15.007812h30.835938c8.289062 0 15.007812-6.71875 15.007812-15.007812zm0 0"></path></svg>
