<svg id="fi_6671413" enable-background="new 0 0 73 73" height="512" viewBox="0 0 73 73" width="512" xmlns="http://www.w3.org/2000/svg"><g id="_x31_42"><path d="m21.4391289 18.104969c-1.8500977.9453125-3.5366211 2.5449219-5.012207 4.7539063v.0009766c-2.0693359 3.0986328-2.8852539 6.9501953-2.3588867 11.1396484.6690645 5.3334846 4.9266033 10.6504173 10.5615234 12.0830078 16.2593651 4.1450996 24.0565796-12.5056229 18.0825195-22.8134766-4.4272461-7.6376953-14.4887695-8.6259765-21.2729492-5.1640625zm3.5605469 26.5244141c-5.0670242-1.2909203-8.8538914-6.1204453-9.4433594-10.8173828-.4804688-3.8251953.2519531-7.3251953 2.1176758-10.1201172v.0009766c1.3320313-1.9941406 2.828125-3.4248047 4.4472656-4.2519531 6.1757813-3.1513672 15.3071289-2.2978516 19.2929688 4.5800781 5.2910804 9.1276168-1.3786813 24.4355735-16.4145508 20.6083984z"></path><path d="m50.6637383 6.2495003c-.3857422-.1513672-.8212891.0380859-.9716797.4248047l-2.1894531 5.5966797c-.1508789.3857422.0390625.8212891.4248047.9716797.3831291.1499205.8198929-.0366898.9716797-.4248047l2.189453-5.5966797c.1513672-.3857422-.0390625-.8212891-.4248046-.9716797z"></path><path d="m51.7071953 15.5825081c1.9262695-1.1367188 3.7519531-2.4638672 5.4262695-3.9453125.3100586-.2744141.3388672-.7480469.0644531-1.0585938-.2734375-.3085938-.7485352-.3388672-1.0585938-.0644531-1.6025391 1.4179688-3.3500977 2.6884766-5.1938477 3.7753906-.3569336.2109375-.4755859.6708984-.2651367 1.0273438.210148.3571043.6706392.4749927 1.0268556.265625z"></path><path d="m53.9093437 19.3998909 4.9526367.4375c.4152794.0361118.7770233-.2706299.8129883-.6816406.0366211-.4121094-.2685547-.7763672-.6811523-.8125l-4.9516602-.4375c-.4013672-.0332031-.7763672.2685547-.8134766.6806641-.036621.4130859.2680665.7773437.6806641.8134765z"></path><path d="m67.0672379 64.3644333c.5320435-.6590004.9371948-1.6777992 1.1638794-2.71912.5238647-1.6693115.4284668-3.5980835-.2412109-5.1917114-1.2290039-2.9228516-3.8881836-4.9990234-6.0253868-6.6679688-12.5483818-9.7633095-11.3198395-8.8828926-11.6115723-9.0187988 3.1877556-7.3095093 2.6140289-15.555378-.904541-21.626709-6.6489259-11.4736328-21.7807618-12.9492188-31.9882813-7.7382813-.7235718.3695068-1.4298096.8105469-2.1195068 1.314209-.0620728.0274048-.1244507.0551147-.1836548.0818481-3.1837225 1.4364004-7.9690056 6.6954117-9.8191528 13.1828003-1.9443363 6.8173829-.7109986 14.4714966 3.276245 20.3331299 7.1898804 10.5699272 21.7112389 13.9051361 32.7009277 6.4995728 5.425415 5.1700439 10.1383057 9.684021 16.0333252 12.6228065 1.5240479.7597656 3.1636353 1.4458618 4.8643799 1.3589478 1.5675049-.0800781 3.8686486-1.2094727 4.8545495-2.4307251zm-44.4435387-12.3942299c-7.8121414-1.9907455-13.7938671-9.4348717-14.7280273-16.8662109-.746582-5.9433594.3950195-11.3847656 3.3007813-15.7353516 2.074707-3.1054688 4.4116211-5.3369141 6.9462891-6.6308594 9.5952148-4.9013672 23.7993164-3.5585938 30.0078125 7.1542969 8.2264365 14.193058-2.1118623 38.0366554-25.5268556 32.078125zm42.1879845 11.6699219c-1.0820274.5048866-2.5112267.4707069-3.9199181-.0976563-1.2880859-.5195313-2.3969727-1.3564453-3.7128906-2.3964844-4.3648071-3.4494629-8.6657715-7.0861206-12.8155518-10.8136597 2.3554688-2.2958374 4.1933594-5.1139526 5.3746338-8.1838379 13.1938972 10.2965012 15.5154991 11.6671143 16.8691368 14.887146.9575195 2.2783204.4555664 5.5507813-1.7954101 6.6044923z"></path></g></svg>
