<svg id="fi_7596922" enable-background="new 0 0 68 68" height="512" viewBox="0 0 68 68" width="512" xmlns="http://www.w3.org/2000/svg"><g id="_x35_4"><path d="m4.8 29.3 6.9 5.2c.5.4-.3.2 19.1-2.2-.2 7.8-.5 25.3-.5 26.6-2.9.2-9.8.7-8.9 3.4-.1 1 .7 1.8 2 2.3 6.2 2.4 13.2 1.8 19.8.6.8-.2 1.6-.3 2.3-.8.7-.4 1.2-1.2 1.1-2-.1-.5-.4-1-.8-1.3-1.2-1.8-6.6-2.3-9.2-2.5.2-5.9.4-11.8.6-18.3l14.6 3.9h.2c.1 0 .2 0 .3-.1l7.7-3.2c.2-.1.3-.2.4-.4s.1-.4 0-.6l-3.9-7.9c-.1-.2-.3-.3-.5-.4l-18.4-4.8c0-.1.1-3.7.1-4.5l19.5-4.7c.2 0 .3-.1.4-.3l5.8-7c.1-.2.2-.4.2-.6s-.2-.4-.3-.5l-7.8-5.1c-.2-.1-.4-.1-.6-.1l-16.9 4.1c0-1.9.3-4.6-1.1-5.9-1.2-1-2.8-.8-3.8.3-.2.1-.4.3-.6.6-1 1.3-.9 2.9-1.2 13.8-21.3 2.5-20.6 2.1-21 2.6l-5.6 8.6c-.3.5-.2.9.1 1.2zm50.3 3.8 3.4 6.8-6.7 2.8-14.7-3.9.3-10.3zm-.4-27.3 6.9 4.5-5.1 6.1-18.9 4.5c.1-4.4.2-8.1.4-11.2zm-18.5-2.1c.5.9.4 2.8.4 3.7-.9 27 .1-4.3-.9 31.8v.1.4c-.1 3.8-.3 10.5-.7 21.6 0 .4.3.8.8.8.4 0 .7-.3.7-.7s0-.8 0-1.1c4.8.3 7.4 1.1 8 1.6 0 .1 0 .2-.1.3 0 .1-.1.1-.1.2-1.1.7-4.8 1.6-10.5 1.6-6.7 0-10.6-1.2-10.9-1.8.1-.3 1.9-1.2 7.5-1.6 0 .4.1.8.2.9.2.4 1.2.7 1.5.4.2-.1.4-.4.5-.7.3-13.5.3-28.6.7-43.2.1-.2 0-.3 0-.4.1-4.7.3-9.1.6-13 0-.6.5-1 .9-1.2.5-.4 1.1-.2 1.4.3zm-24.9 17.1 19.9-2.2c-.1 4.1-.2 8.2-.4 12.3l-18.5 2.3-6.1-4.6z"></path><path d="m16.8 29.5c.4 0 .7-.4.7-.8-.1-1.7.4-3.4 1.3-4.8.2-.4.1-.8-.2-1-.4-.2-.8-.1-1 .2-1 1.7-1.6 3.7-1.5 5.6-.1.5.3.8.7.8z"></path><path d="m21.4 29.5c.3 0 .6-.2.7-.6l1.4-5.5c.1-.4-.1-.8-.5-.9s-.8.1-.9.5l-1.4 5.5c-.1.5.2 1 .7 1z"></path><path d="m41.5 13.6c.1.3.4.6.7.6h.2l8-2.2c.4-.1.6-.5.5-.9s-.5-.6-.9-.5l-8 2.2c-.3 0-.6.4-.5.8z"></path><path d="m40.9 35.8 6.3 2.2h.2c.3 0 .6-.2.7-.5.1-.4-.1-.8-.5-1l-6.3-2.2c-.4-.1-.8.1-1 .5 0 .4.2.8.6 1z"></path><path d="m12.7 15.3c.3-.3.3-.8 0-1.1l-2-2.2c-.3-.3-.8-.3-1.1 0s-.3.8 0 1.1l2 2.2c.3.3.8.3 1.1 0z"></path><path d="m17 14.8c.4-.1.6-.6.5-1l-1.7-5c-.1-.4-.6-.6-1-.5s-.6.6-.5 1l1.7 5c.1.4.6.6 1 .5z"></path><path d="m21.4 13.5 1.3-5.8c.1-.4-.2-.8-.6-.9s-.8.2-.9.6l-1.2 5.8c-.1.4.2.8.6.9s.8-.2.8-.6z"></path></g></svg>
