<svg id="fi_4341098" enable-background="new 0 0 512 512" height="512" viewBox="0 0 512 512" width="512" xmlns="http://www.w3.org/2000/svg"><g><path d="m484.733 70.736c-12.724-28.104-37.051-48.012-64.947-53.822c-3.597-6.963-9.603-12.367-16.694-14.956c-6.9-2.519-14.228-2.22-20.638.841c-10.825 5.169-16.506 16.734-15.129 28.737l-118.949 54.37c-10.168 4.604-16.544 14.179-17.579 24.56l-71.191 32.229c-6.403 2.898-11.294 8.117-13.772 14.694c-2.478 6.578-2.247 13.727.652 20.129l.094.207-59.197 26.8c-9.433 4.271-14.913 13.729-14.608 23.486l-24.02 10.874c-2.762-2.714-6.08-4.852-9.812-6.258c-7.044-2.653-14.697-2.405-21.553.699c-14.153 6.407-20.456 23.135-14.049 37.287h.001l14.426 31.866c3.105 6.856 8.692 12.093 15.735 14.746c7.032 2.651 14.689 2.408 21.552-.699c6.856-3.104 12.093-8.692 14.746-15.734c1.406-3.733 1.989-7.637 1.772-11.503l24.897-11.271c7.141 5.617 17.273 6.872 25.552 3.025l59.198-26.8.093.206c4.248 9.381 13.349 15.052 23.001 15.424c.449 1.504.969 2.978 1.553 4.419l-111.402 177.364c-15.074 1.718-26.826 14.545-26.826 30.071c0 16.693 13.581 30.273 30.273 30.273h37.561c16.692 0 30.272-13.58 30.272-30.272c0-7.438-2.702-14.254-7.169-19.531l93.913-149.516 93.251 149.439c-4.506 5.287-7.235 12.132-7.235 19.607c0 16.692 13.581 30.272 30.273 30.272h37.56c16.693 0 30.272-13.58 30.272-30.272c0-15.485-11.688-28.284-26.704-30.056l-111.2-178.203c2.131-5.544 3.311-11.556 3.311-17.842c0-5.247-.819-10.305-2.328-15.06c5.998 1.069 12.088.298 17.728-2.25l118.688-54.25c7.911 9.481 21.905 13.456 33.15 7.917c13.303-6.353 18.843-22.362 13.054-36.977c13.824-24.652 15.006-56.48 2.424-84.27zm-19.104 8.649c7.233 15.978 8.72 33.555 4.788 49.255l-38.697-85.476c14.441 7.337 26.577 20.025 33.909 36.221zm-406.499 177.823 20.567-9.311 5.521 12.196-20.567 9.311zm-8.951 36.193c-.678 1.801-2.017 3.229-3.77 4.023-3.498 1.669-8.009-.031-9.535-3.592l-14.427-31.867h.001c-1.638-3.619-.027-7.896 3.592-9.535 3.622-1.639 7.896-.027 9.534 3.592l14.426 31.866c.794 1.755.857 3.712.179 5.513zm63.197-31.461c-2.63.75-3.705.346-5.185-1.953l-14.112-31.172c-.892-1.968-.015-4.295 1.953-5.186l59.198-26.8 17.344 38.311zm87.044-16.138-34.83-76.932c-.793-1.754-.423-3.313-.132-4.087.504-1.335 1.497-2.395 2.796-2.984l67.506-30.562 35.447 78.296c-5.882-2.444-12.326-3.8-19.082-3.8-25.018 0-45.789 18.511-49.349 42.554-1.003-.534-1.853-1.372-2.356-2.485zm168.359 205.653c-1.614 0-3.197.13-4.743.374l-93.502-149.842c5.673-2.261 10.84-5.524 15.271-9.584l99.25 159.053h-16.276zm-233.306 0h-16.118l99.612-158.588c4.466 3.981 9.65 7.168 15.331 9.35l-93.985 149.63c-1.576-.255-3.192-.392-4.84-.392zm145.575-195.828c0 15.948-12.975 28.923-28.923 28.923s-28.922-12.975-28.922-28.923 12.974-28.923 28.922-28.923 28.923 12.975 28.923 28.923zm-145.575 235.403h-37.561c-5.129 0-9.303-4.173-9.303-9.302s4.174-9.303 9.303-9.303h37.561c5.129 0 9.302 4.173 9.302 9.303-.001 5.128-4.173 9.302-9.302 9.302zm270.866 0h-37.56c-5.129 0-9.303-4.173-9.303-9.302s4.174-9.303 9.303-9.303h37.56c5.129 0 9.302 4.173 9.302 9.303 0 5.128-4.172 9.302-9.302 9.302zm-97.604-271.801c-2.244 1.016-4.749 1.097-7.052.229-2.304-.868-4.133-2.582-5.147-4.825l-44.105-97.423c-2.097-4.631-.036-10.104 4.629-12.216l117.507-53.71 51.71 114.219zm151.485-46.168c-1.646.785-3.304.469-4.408.066-2.333-.852-4.342-2.822-5.511-5.406l-61.165-135.101c-1.971-4.355-.893-9.345 2.355-10.896 1.404-.699 3.125-.555 4.408-.067 2.333.852 4.342 2.822 5.511 5.407l61.165 135.101c1.971 4.355.893 9.344-2.355 10.896z"></path><circle cx="252.125" cy="255.627" r="12.628"></circle><path d="m350.341 90.49c-2.461-5.242-8.707-7.5-13.947-5.037l-2.811 1.319c-5.243 2.461-7.498 8.705-5.037 13.947 1.785 3.802 5.56 6.033 9.499 6.033 2.387.139 5.118-1.284 7.259-2.315 5.242-2.461 7.497-8.705 5.037-13.947z"></path><path d="m306.082 99.681-23.745 11.146c-5.241 2.461-7.496 8.706-5.035 13.947 1.785 3.802 5.559 6.032 9.498 6.032 1.492 0 3.009-.32 4.449-.997l23.743-11.146c5.242-2.46 7.497-8.705 5.037-13.947-2.46-5.241-8.706-7.496-13.947-5.035z"></path><path d="m97.571 50.033c10.74 0 19.447-8.707 19.447-19.447s-8.707-19.447-19.447-19.447-19.447 8.707-19.447 19.447 8.707 19.447 19.447 19.447z"></path><path d="m502.929 0c-4.548 0-8.236 3.687-8.236 8.236 0 4.548 3.687 8.235 8.236 8.235s8.235-3.688 8.235-8.235c0-4.549-3.687-8.236-8.235-8.236z"></path><path d="m162.534 55.835 16.504 7.436c.707.318 1.267.949 1.55 1.744l6.606 18.576c.933 2.624 4.234 2.624 5.167 0l6.606-18.576c.283-.795.843-1.426 1.549-1.744l16.504-7.436c2.332-1.05 2.332-4.766 0-5.816l-16.504-7.436c-.707-.318-1.267-.949-1.549-1.744l-6.606-18.576c-.933-2.625-4.234-2.625-5.167 0l-6.606 18.576c-.283.795-.843 1.425-1.55 1.744l-16.504 7.436c-2.331 1.051-2.331 4.766 0 5.816z"></path><path d="m14.805 140.178 22.678 10.024c.971.429 1.74 1.279 2.129 2.351l9.078 25.042c1.282 3.538 5.818 3.538 7.1 0l9.078-25.042c.389-1.072 1.158-1.922 2.129-2.351l22.678-10.024c3.204-1.416 3.204-6.424 0-7.84l-22.678-10.024c-.971-.429-1.74-1.279-2.129-2.351l-9.078-25.044c-1.282-3.538-5.818-3.538-7.1 0l-9.078 25.042c-.389 1.072-1.158 1.922-2.129 2.351l-22.678 10.024c-3.204 1.417-3.204 6.426 0 7.842z"></path></g></svg>
